REM DIRINDEX 1\8,1\2\11,1\3\12,1\3\14,1\5\15,1\5\16,1\6\17,1\6\18,1\4\19,1\4\20,1\4\21,1\4\22,1\7\23,1\7\24,1\7\25,1\2\9\26,1\2\9\27,1\2\10\28,1\2\10\29,1\2\10\30,1\2\10\31,1\2\10\32,1\3\13\33,1\3\13\34,1\3\13\35
REM DIRNAME cjc123,folder01,folder02,folder03,folder04,folder05,folder06,folder07,folder08,folder09,folder10,folder11,folder12,folder13,folder14,folder15,folder16,folder17,folder18,folder19,folder20,folder21,folder22,folder23,folder24,folder25,folder26,folder27,folder28,folder29,folder30,folder31,folder32,folder33,folder34
TITLE ""
FILE "1-16 016_UNIT2_SET2.mp3" MP3
  TRACK 01 AUDIO
    TITLE "11:cjc123_0747"
    INDEX 01 00:00:00
  TRACK 02 AUDIO
    TITLE "0:"
    INDEX 01 00:02:51
  TRACK 03 AUDIO
    TITLE "28:cjc123_0748"
    INDEX 01 00:03:27
  TRACK 04 AUDIO
    TITLE "0:"
    INDEX 01 00:04:23
  TRACK 05 AUDIO
    TITLE "29:cjc123_0749"
    INDEX 01 00:04:44
  TRACK 06 AUDIO
    TITLE "0:"
    INDEX 01 00:05:57
  TRACK 07 AUDIO
    TITLE "30:cjc123_0750"
    INDEX 01 00:05:63
  TRACK 08 AUDIO
    TITLE "0:"
    INDEX 01 00:06:67
  TRACK 09 AUDIO
    TITLE "31:cjc123_0751"
    INDEX 01 00:07:41
  TRACK 10 AUDIO
    TITLE "0:"
    INDEX 01 00:10:53
  TRACK 11 AUDIO
    TITLE "32:cjc123_0752"
    INDEX 01 00:11:17
  TRACK 12 AUDIO
    TITLE "0:"
    INDEX 01 00:14:37
  TRACK 13 AUDIO
    TITLE "28:cjc123_0753"
    INDEX 01 00:15:03
  TRACK 14 AUDIO
    TITLE "0:"
    INDEX 01 00:16:34
  TRACK 15 AUDIO
    TITLE "29:cjc123_0754"
    INDEX 01 00:16:55
  TRACK 16 AUDIO
    TITLE "0:"
    INDEX 01 00:17:51
  TRACK 17 AUDIO
    TITLE "30:cjc123_0755"
    INDEX 01 00:17:65
  TRACK 18 AUDIO
    TITLE "0:"
    INDEX 01 00:19:15
  TRACK 19 AUDIO
    TITLE "31:cjc123_0756"
    INDEX 01 00:19:67
  TRACK 20 AUDIO
    TITLE "0:"
    INDEX 01 00:23:63
  TRACK 21 AUDIO
    TITLE "32:cjc123_0757"
    INDEX 01 00:24:27
  TRACK 22 AUDIO
    TITLE "0:"
    INDEX 01 00:28:53
  TRACK 23 AUDIO
    TITLE "28:cjc123_0758"
    INDEX 01 00:29:25
  TRACK 24 AUDIO
    TITLE "0:"
    INDEX 01 00:30:32
  TRACK 25 AUDIO
    TITLE "29:cjc123_0759"
    INDEX 01 00:30:54
  TRACK 26 AUDIO
    TITLE "0:"
    INDEX 01 00:31:53
  TRACK 27 AUDIO
    TITLE "30:cjc123_0760"
    INDEX 01 00:32:01
  TRACK 28 AUDIO
    TITLE "0:"
    INDEX 01 00:33:13
  TRACK 29 AUDIO
    TITLE "31:cjc123_0761"
    INDEX 01 00:34:00
  TRACK 30 AUDIO
    TITLE "0:"
    INDEX 01 00:37:05
  TRACK 31 AUDIO
    TITLE "32:cjc123_0762"
    INDEX 01 00:37:48
  TRACK 32 AUDIO
    TITLE "0:"
    INDEX 01 00:40:68
  TRACK 33 AUDIO
    TITLE "28:cjc123_0763"
    INDEX 01 00:41:28
  TRACK 34 AUDIO
    TITLE "0:"
    INDEX 01 00:42:49
  TRACK 35 AUDIO
    TITLE "29:cjc123_0764"
    INDEX 01 00:42:70
  TRACK 36 AUDIO
    TITLE "0:"
    INDEX 01 00:43:70
  TRACK 37 AUDIO
    TITLE "30:cjc123_0765"
    INDEX 01 00:44:03
  TRACK 38 AUDIO
    TITLE "0:"
    INDEX 01 00:45:16
  TRACK 39 AUDIO
    TITLE "31:cjc123_0766"
    INDEX 01 00:46:02
  TRACK 40 AUDIO
    TITLE "0:"
    INDEX 01 00:49:45
  TRACK 41 AUDIO
    TITLE "32:cjc123_0767"
    INDEX 01 00:49:72
  TRACK 42 AUDIO
    TITLE "0:"
    INDEX 01 00:54:01
  TRACK 43 AUDIO
    TITLE "28:cjc123_0768"
    INDEX 01 00:54:50
  TRACK 44 AUDIO
    TITLE "0:"
    INDEX 01 00:56:00
  TRACK 45 AUDIO
    TITLE "29:cjc123_0769"
    INDEX 01 00:56:12
  TRACK 46 AUDIO
    TITLE "0:"
    INDEX 01 00:57:09
  TRACK 47 AUDIO
    TITLE "30:cjc123_0770"
    INDEX 01 00:57:21
  TRACK 48 AUDIO
    TITLE "0:"
    INDEX 01 00:58:42
  TRACK 49 AUDIO
    TITLE "31:cjc123_0771"
    INDEX 01 00:59:12
  TRACK 50 AUDIO
    TITLE "0:"
    INDEX 01 01:03:33
  TRACK 51 AUDIO
    TITLE "32:cjc123_0772"
    INDEX 01 01:03:61
  TRACK 52 AUDIO
    TITLE "0:"
    INDEX 01 01:08:03
  TRACK 53 AUDIO
    TITLE "28:cjc123_0773"
    INDEX 01 01:08:50
  TRACK 54 AUDIO
    TITLE "0:"
    INDEX 01 01:09:63
  TRACK 55 AUDIO
    TITLE "29:cjc123_0774"
    INDEX 01 01:10:04
  TRACK 56 AUDIO
    TITLE "0:"
    INDEX 01 01:10:67
  TRACK 57 AUDIO
    TITLE "30:cjc123_0775"
    INDEX 01 01:11:03
  TRACK 58 AUDIO
    TITLE "0:"
    INDEX 01 01:12:28
  TRACK 59 AUDIO
    TITLE "31:cjc123_0776"
    INDEX 01 01:13:00
  TRACK 60 AUDIO
    TITLE "0:"
    INDEX 01 01:16:28
  TRACK 61 AUDIO
    TITLE "32:cjc123_0777"
    INDEX 01 01:17:02
  TRACK 62 AUDIO
    TITLE "0:"
    INDEX 01 01:20:61
  TRACK 63 AUDIO
    TITLE "28:cjc123_0778"
    INDEX 01 01:21:35
  TRACK 64 AUDIO
    TITLE "0:"
    INDEX 01 01:22:44
  TRACK 65 AUDIO
    TITLE "29:cjc123_0779"
    INDEX 01 01:22:62
  TRACK 66 AUDIO
    TITLE "0:"
    INDEX 01 01:24:00
  TRACK 67 AUDIO
    TITLE "30:cjc123_0780"
    INDEX 01 01:24:08
  TRACK 68 AUDIO
    TITLE "0:"
    INDEX 01 01:25:31
  TRACK 69 AUDIO
    TITLE "31:cjc123_0781"
    INDEX 01 01:26:07
  TRACK 70 AUDIO
    TITLE "0:"
    INDEX 01 01:29:56
  TRACK 71 AUDIO
    TITLE "32:cjc123_0782"
    INDEX 01 01:30:22
  TRACK 72 AUDIO
    TITLE "0:"
    INDEX 01 01:32:68
  TRACK 73 AUDIO
    TITLE "28:cjc123_0783"
    INDEX 01 01:33:38
  TRACK 74 AUDIO
    TITLE "0:"
    INDEX 01 01:34:44
  TRACK 75 AUDIO
    TITLE "29:cjc123_0784"
    INDEX 01 01:34:67
  TRACK 76 AUDIO
    TITLE "0:"
    INDEX 01 01:35:73
  TRACK 77 AUDIO
    TITLE "30:cjc123_0785"
    INDEX 01 01:36:07
  TRACK 78 AUDIO
    TITLE "0:"
    INDEX 01 01:37:22
  TRACK 79 AUDIO
    TITLE "31:cjc123_0786"
    INDEX 01 01:37:71
  TRACK 80 AUDIO
    TITLE "0:"
    INDEX 01 01:42:04
  TRACK 81 AUDIO
    TITLE "32:cjc123_0787"
    INDEX 01 01:42:33
  TRACK 82 AUDIO
    TITLE "0:"
    INDEX 01 01:46:00
  TRACK 83 AUDIO
    TITLE "28:cjc123_0788"
    INDEX 01 01:46:45
  TRACK 84 AUDIO
    TITLE "0:"
    INDEX 01 01:47:58
  TRACK 85 AUDIO
    TITLE "29:cjc123_0789"
    INDEX 01 01:47:70
  TRACK 86 AUDIO
    TITLE "0:"
    INDEX 01 01:48:73
  TRACK 87 AUDIO
    TITLE "30:cjc123_0790"
    INDEX 01 01:49:10
  TRACK 88 AUDIO
    TITLE "0:"
    INDEX 01 01:50:17
  TRACK 89 AUDIO
    TITLE "31:cjc123_0791"
    INDEX 01 01:50:70
  TRACK 90 AUDIO
    TITLE "0:"
    INDEX 01 01:54:29
  TRACK 91 AUDIO
    TITLE "32:cjc123_0792"
    INDEX 01 01:54:60
  TRACK 92 AUDIO
    TITLE "0:"
    INDEX 01 01:58:01
  TRACK 93 AUDIO
    TITLE "28:cjc123_0793"
    INDEX 01 01:58:50
  TRACK 94 AUDIO
    TITLE "0:"
    INDEX 01 01:59:69
  TRACK 95 AUDIO
    TITLE "29:cjc123_0794"
    INDEX 01 02:00:06
  TRACK 96 AUDIO
    TITLE "0:"
    INDEX 01 02:01:29
  TRACK 97 AUDIO
    TITLE "30:cjc123_0795"
    INDEX 01 02:01:37
  TRACK 98 AUDIO
    TITLE "0:"
    INDEX 01 02:02:60
  TRACK 99 AUDIO
    TITLE "31:cjc123_0796"
    INDEX 01 02:03:30
  TRACK 100 AUDIO
    TITLE "0:"
    INDEX 01 02:07:10
  TRACK 101 AUDIO
    TITLE "32:cjc123_0797"
    INDEX 01 02:07:45
  TRACK 102 AUDIO
    TITLE "0:"
    INDEX 01 02:10:51
  TRACK 103 AUDIO
    TITLE "28:cjc123_0798"
    INDEX 01 02:11:19
  TRACK 104 AUDIO
    TITLE "0:"
    INDEX 01 02:12:42
  TRACK 105 AUDIO
    TITLE "29:cjc123_0799"
    INDEX 01 02:12:50
  TRACK 106 AUDIO
    TITLE "0:"
    INDEX 01 02:13:57
  TRACK 107 AUDIO
    TITLE "30:cjc123_0800"
    INDEX 01 02:13:65
  TRACK 108 AUDIO
    TITLE "0:"
    INDEX 01 02:15:11
  TRACK 109 AUDIO
    TITLE "31:cjc123_0801"
    INDEX 01 02:15:56
  TRACK 110 AUDIO
    TITLE "0:"
    INDEX 01 02:19:37
  TRACK 111 AUDIO
    TITLE "32:cjc123_0802"
    INDEX 01 02:20:12
  TRACK 112 AUDIO
    TITLE "0:"
    INDEX 01 02:23:01
  TRACK 113 AUDIO
    TITLE "28:cjc123_0803"
    INDEX 01 02:23:42
  TRACK 114 AUDIO
    TITLE "0:"
    INDEX 01 02:24:32
  TRACK 115 AUDIO
    TITLE "29:cjc123_0804"
    INDEX 01 02:24:53
  TRACK 116 AUDIO
    TITLE "0:"
    INDEX 01 02:25:61
  TRACK 117 AUDIO
    TITLE "30:cjc123_0805"
    INDEX 01 02:25:68
  TRACK 118 AUDIO
    TITLE "0:"
    INDEX 01 02:27:05
  TRACK 119 AUDIO
    TITLE "31:cjc123_0806"
    INDEX 01 02:27:52
  TRACK 120 AUDIO
    TITLE "0:"
    INDEX 01 02:32:10
  TRACK 121 AUDIO
    TITLE "32:cjc123_0807"
    INDEX 01 02:32:49
  TRACK 122 AUDIO
    TITLE "0:"
    INDEX 01 02:37:44
  TRACK 123 AUDIO
    TITLE "28:cjc123_0808"
    INDEX 01 02:38:18
  TRACK 124 AUDIO
    TITLE "0:"
    INDEX 01 02:39:49
  TRACK 125 AUDIO
    TITLE "29:cjc123_0809"
    INDEX 01 02:39:65
  TRACK 126 AUDIO
    TITLE "0:"
    INDEX 01 02:41:32
  TRACK 127 AUDIO
    TITLE "30:cjc123_0810"
    INDEX 01 02:41:38
  TRACK 128 AUDIO
    TITLE "0:"
    INDEX 01 02:42:65
  TRACK 129 AUDIO
    TITLE "31:cjc123_0811"
    INDEX 01 02:43:39
  TRACK 130 AUDIO
    TITLE "0:"
    INDEX 01 02:47:35
  TRACK 131 AUDIO
    TITLE "32:cjc123_0812"
    INDEX 01 02:47:66
  TRACK 132 AUDIO
    TITLE "0:"
    INDEX 01 02:52:16
  TRACK 133 AUDIO
    TITLE "28:cjc123_0813"
    INDEX 01 02:52:65
  TRACK 134 AUDIO
    TITLE "0:"
    INDEX 01 02:53:73
  TRACK 135 AUDIO
    TITLE "29:cjc123_0814"
    INDEX 01 02:54:13
  TRACK 136 AUDIO
    TITLE "0:"
    INDEX 01 02:55:19
  TRACK 137 AUDIO
    TITLE "30:cjc123_0815"
    INDEX 01 02:55:30
  TRACK 138 AUDIO
    TITLE "0:"
    INDEX 01 02:56:32
  TRACK 139 AUDIO
    TITLE "31:cjc123_0816"
    INDEX 01 02:57:12
  TRACK 140 AUDIO
    TITLE "0:"
    INDEX 01 03:00:67
  TRACK 141 AUDIO
    TITLE "32:cjc123_0817"
    INDEX 01 03:01:29
  TRACK 142 AUDIO
    TITLE "0:"
    INDEX 01 03:05:07
  TRACK 143 AUDIO
    TITLE "28:cjc123_0818"
    INDEX 01 03:05:54
  TRACK 144 AUDIO
    TITLE "0:"
    INDEX 01 03:07:06
  TRACK 145 AUDIO
    TITLE "29:cjc123_0819"
    INDEX 01 03:07:16
  TRACK 146 AUDIO
    TITLE "0:"
    INDEX 01 03:08:29
  TRACK 147 AUDIO
    TITLE "30:cjc123_0820"
    INDEX 01 03:08:39
  TRACK 148 AUDIO
    TITLE "0:"
    INDEX 01 03:09:62
  TRACK 149 AUDIO
    TITLE "31:cjc123_0821"
    INDEX 01 03:10:34
  TRACK 150 AUDIO
    TITLE "0:"
    INDEX 01 03:13:01
  TRACK 151 AUDIO
    TITLE "32:cjc123_0822"
    INDEX 01 03:13:30
  TRACK 152 AUDIO
    TITLE "0:"
    INDEX 01 03:16:01
